# xmcd
#
# Track frame offsets: 
#        180
#        12458
#        26688
#        43900
#        54300
#        79840
#        89500
#        102183
#        119732
#        136053
#        148620
#        163078
#
# Disc length: 2355 seconds
#
# Revision: 0
# Processed by: cddbd v1.5.1PL2 Copyright (c) Steve Scherf et al.
# Submitted via: ExactAudioCopy v0.95a5
#
DISCID=a409310c
DTITLE=New West - Texas Blues
DYEAR=1900
DGENRE=Western
TTITLE0=This Boy Can Ride
TTITLE1=Texas Moon
TTITLE2=Cowboy Lullaby
TTITLE3=Texas Blues
TTITLE4=Rodeo Hobo
TTITLE5=My Window Faces The South
TTITLE6=A Little Further In The Hole
TTITLE7=The High Sonoita
TTITLE8=Backin' To Burmingham
TTITLE9=Time Changes Everything
TTITLE10=The Rodeo Nobody Knows
TTITLE11=Cowboy Blessing
EXTD=
EXTT0=
EXTT1=
EXTT2=
EXTT3=
EXTT4=
EXTT5=
EXTT6=
EXTT7=
EXTT8=
EXTT9=
EXTT10=
EXTT11=
PLAYORDER=
